// eslint-disable-next-line no-unused-vars
        className="w-[3.9vw]"

      <svg
        xmlns="http://www.w3.org/2000/svg"
        viewBox="0 0 14 15"
        fill="none"
      >
        <path
          d="M10.2002 9.83801C9.44682 10.6602 8.48627 11.6448 7.31537 12.7937C7.31513 12.7939 7.31488 12.7941 7.31464 12.7944L7 13.1018L6.68566 12.7947C6.68532 12.7943 6.68497 12.794 6.68463 12.7937C5.51418 11.6443 4.55347 10.6595 3.79935 9.83757C3.04984 9.02067 2.47086 8.30561 2.05142 7.68997C1.63151 7.07365 1.36578 6.54679 1.22317 6.10537C1.0745 5.64523 1.00042 5.17659 1 4.69577C1.00008 3.72405 1.29108 2.97526 1.83935 2.37769C2.38308 1.78507 3.0307 1.5 3.85 1.5C4.29629 1.5 4.7183 1.60135 5.12805 1.81039C5.53997 2.02054 5.90025 2.31812 6.21145 2.71715L7 3.72827L7.78855 2.71715C8.09975 2.31812 8.46003 2.02054 8.87195 1.81039C9.2817 1.60135 9.70371 1.5 10.15 1.5C10.9693 1.5 11.6169 1.78507 12.1607 2.37769C12.709 2.97534 13 3.72426 13 4.69619C13 5.17628 12.9262 5.64486 12.7775 6.10562C12.6349 6.54716 12.3692 7.07373 11.949 7.68929C11.5288 8.30496 10.9495 9.02038 10.2002 9.83801Z"
          stroke="#F24E1E"
          strokeWidth="2"
        />
      </svg>

